# xmcd
#
# Track frame offsets:
#	150
#	13090
#	22267
#	33270
#	44245
#	53522
#	62402
#	71605
#	81680
#	92360
#	103527
#	113462
#	125107
#	136007
#	145492
#	154572
#	163895
#	174407
#	182552
#	193975
#	203590
#	215750
#	224982
#	236425
#	248245
#	259785
#	270925
#	279145
#	290097
#	300790
#
# Disc length: 4152 seconds
#
# Revision: 1
# Processed by: cddbd v1.5PL3 Copyright (c) Steve Scherf et al.
# Submitted via: EasyCDDAExtractor 7.0.4.1
#
DISCID=b910361e
DTITLE=Jim Reeves - Gentleman Jim - 1955-1959 - Disc 02
DYEAR=1989
DGENRE=Country and Western
TTITLE0=Four Walls
TTITLE1=Honey, Won't You Please Come Home (1. Recording)
TTITLE2=Look Behind You (2. Recording)
TTITLE3=The Gods Were Angry With Me
TTITLE4=I Know (And You Know) (Take 2 - Master)
TTITLE5=Honey, Won't You Please Come Home (2. Recording)
TTITLE6=Young Hearts
TTITLE7=I Heard My Heart Break Last Night
TTITLE8=The Image Of Me
TTITLE9=Anna Marie
TTITLE10=Seabreeze
TTITLE11=Blue Without My Baby
TTITLE12=I Love You More
TTITLE13=Theme Of Love (I Love To Say I Love You)
TTITLE14=Wishful Thinking
TTITLE15=I Know (And You Know) (Take 1)
TTITLE16=Two Shadows On Your Window
TTITLE17=Everywhere You Go (Single Version)
TTITLE18=Teardrops In My Heart
TTITLE19=Yours
TTITLE20=I Don't See Me In Your Eyes Anymore
TTITLE21=I Get The Blues When It Rains
TTITLE22=I Care No More
TTITLE23=Final Affair
TTITLE24=You Belong To Me
TTITLE25=My Happiness
TTITLE26=Everywhere You Go
TTITLE27=Blues In My Heart
TTITLE28=Need Me
TTITLE29=That's My Desire
EXTD=
EXTT0=
EXTT1=
EXTT2=
EXTT3=
EXTT4=
EXTT5=
EXTT6=
EXTT7=
EXTT8=
EXTT9=
EXTT10=
EXTT11=
EXTT12=
EXTT13=
EXTT14=
EXTT15=
EXTT16=
EXTT17=
EXTT18=
EXTT19=
EXTT20=
EXTT21=
EXTT22=
EXTT23=
EXTT24=
EXTT25=
EXTT26=
EXTT27=
EXTT28=
EXTT29=
PLAYORDER=
